<svg width="168" height="207" viewBox="0 0 168 207" fill="none" xmlns="http://www.w3.org/2000/svg">
<path d="M42.9341 4.42578H124.599V85.2804H42.9341V4.42578Z" fill="url(#paint0_radial_167_556)"/>
<path d="M42.9341 4.42575H124.599V85.2803H42.9341V4.42575ZM39.2212 89.0596H128.294V0.646484H39.2212V89.0596ZM99.2876 36.9311C96.3602 36.9311 95.3605 38.4392 95.3605 39.6929C95.3605 41.0556 96.021 42.0004 99.9659 44.0717C105.785 46.9425 107.606 49.7043 107.606 53.7379C107.606 59.7884 103.072 63.0408 96.9492 63.0408C93.7183 63.0408 90.9337 62.3685 89.345 61.4237C89.0772 61.3147 89.0415 61.1148 89.0415 60.8241V55.246C89.0415 54.8645 89.22 54.7554 89.4878 54.9371C91.8262 56.4815 94.5037 57.172 96.9492 57.172C99.8767 57.172 101.108 55.9183 101.108 54.2285C101.108 52.8658 100.252 51.6666 96.503 49.6861C91.2371 47.1242 89.0415 44.526 89.0415 40.1653C89.0415 35.2958 92.7901 31.244 99.2876 31.244C102.483 31.244 104.714 31.7346 105.928 32.2979C106.231 32.4796 106.303 32.7884 106.303 33.061V38.2393C106.303 38.5482 106.124 38.7299 105.749 38.6209C104.107 37.567 101.697 36.9311 99.2876 36.9311ZM67.3712 41.419C68.228 41.4917 68.8885 41.4917 70.3701 41.4917C74.7077 41.4917 78.7954 39.9472 78.7954 33.9331C78.7954 29.1364 75.868 26.7198 70.9234 26.7198C69.4418 26.7198 68.0317 26.7925 67.3533 26.8288L67.3712 41.419ZM60.7487 21.3598C60.7487 21.0872 61.2664 20.9055 61.5698 20.9055C63.9439 20.7965 67.4783 20.7239 71.1376 20.7239C81.4194 20.7239 85.4358 26.4654 85.4358 33.7878C85.4358 43.3813 78.5991 47.5058 70.2094 47.5058C68.7992 47.5058 68.3173 47.4331 67.3176 47.4331V61.9324C67.3176 62.2413 67.2105 62.3867 66.8714 62.3867H61.195C60.8915 62.3867 60.7487 62.2776 60.7487 61.9324V21.3598Z" fill="#31C5F0"/>
<path d="M69.0468 124.266L68.4588 122.502H64.5528L63.9648 124.266H61.8788L65.3088 114.466H67.7028L71.1468 124.266H69.0468ZM65.1688 120.696H67.8568L66.5128 116.692L65.1688 120.696ZM77.1289 114.466H78.9349V124.266H77.1289V123.44C76.5969 124.121 75.8409 124.462 74.8609 124.462C73.9183 124.462 73.1109 124.107 72.4389 123.398C71.7763 122.679 71.4449 121.802 71.4449 120.766C71.4449 119.73 71.7763 118.857 72.4389 118.148C73.1109 117.429 73.9183 117.07 74.8609 117.07C75.8409 117.07 76.5969 117.41 77.1289 118.092V114.466ZM73.7969 122.194C74.1703 122.558 74.6369 122.74 75.1969 122.74C75.7569 122.74 76.2189 122.558 76.5829 122.194C76.9469 121.82 77.1289 121.344 77.1289 120.766C77.1289 120.187 76.9469 119.716 76.5829 119.352C76.2189 118.978 75.7569 118.792 75.1969 118.792C74.6369 118.792 74.1703 118.978 73.7969 119.352C73.4329 119.716 73.2509 120.187 73.2509 120.766C73.2509 121.344 73.4329 121.82 73.7969 122.194ZM86.5506 123.398C85.832 124.107 84.9546 124.462 83.9186 124.462C82.8826 124.462 82.0053 124.107 81.2866 123.398C80.5773 122.679 80.2226 121.802 80.2226 120.766C80.2226 119.73 80.5773 118.857 81.2866 118.148C82.0053 117.429 82.8826 117.07 83.9186 117.07C84.9546 117.07 85.832 117.429 86.5506 118.148C87.2693 118.857 87.6286 119.73 87.6286 120.766C87.6286 121.802 87.2693 122.679 86.5506 123.398ZM82.5606 122.152C82.9246 122.516 83.3773 122.698 83.9186 122.698C84.46 122.698 84.9126 122.516 85.2766 122.152C85.6406 121.788 85.8226 121.326 85.8226 120.766C85.8226 120.206 85.6406 119.744 85.2766 119.38C84.9126 119.016 84.46 118.834 83.9186 118.834C83.3773 118.834 82.9246 119.016 82.5606 119.38C82.206 119.744 82.0286 120.206 82.0286 120.766C82.0286 121.326 82.206 121.788 82.5606 122.152ZM92.9731 117.07C93.9158 117.07 94.7185 117.429 95.3811 118.148C96.0531 118.857 96.3891 119.73 96.3891 120.766C96.3891 121.802 96.0531 122.679 95.3811 123.398C94.7185 124.107 93.9158 124.462 92.9731 124.462C91.9931 124.462 91.2371 124.121 90.7051 123.44V124.266H88.8991V114.466H90.7051V118.092C91.2371 117.41 91.9931 117.07 92.9731 117.07ZM91.2511 122.194C91.6151 122.558 92.0771 122.74 92.6371 122.74C93.1971 122.74 93.6591 122.558 94.0231 122.194C94.3965 121.82 94.5831 121.344 94.5831 120.766C94.5831 120.187 94.3965 119.716 94.0231 119.352C93.6591 118.978 93.1971 118.792 92.6371 118.792C92.0771 118.792 91.6151 118.978 91.2511 119.352C90.8871 119.716 90.7051 120.187 90.7051 120.766C90.7051 121.344 90.8871 121.82 91.2511 122.194ZM99.1888 121.508C99.4315 122.385 100.089 122.824 101.163 122.824C101.853 122.824 102.376 122.59 102.731 122.124L104.187 122.964C103.496 123.962 102.479 124.462 101.135 124.462C99.9775 124.462 99.0488 124.112 98.3488 123.412C97.6488 122.712 97.2988 121.83 97.2988 120.766C97.2988 119.711 97.6441 118.834 98.3348 118.134C99.0255 117.424 99.9121 117.07 100.995 117.07C102.021 117.07 102.866 117.424 103.529 118.134C104.201 118.843 104.537 119.72 104.537 120.766C104.537 120.999 104.513 121.246 104.467 121.508H99.1888ZM99.1608 120.108H102.731C102.628 119.632 102.413 119.277 102.087 119.044C101.769 118.81 101.405 118.694 100.995 118.694C100.509 118.694 100.108 118.82 99.7908 119.072C99.4735 119.314 99.2635 119.66 99.1608 120.108ZM53.31 131.466C54.2526 131.466 55.046 131.783 55.69 132.418C56.334 133.052 56.656 133.832 56.656 134.756C56.656 135.68 56.334 136.459 55.69 137.094C55.046 137.728 54.2526 138.046 53.31 138.046H51.588V141.266H49.656V131.466H53.31ZM53.31 136.24C53.7206 136.24 54.0613 136.1 54.332 135.82C54.6026 135.53 54.738 135.176 54.738 134.756C54.738 134.326 54.6026 133.972 54.332 133.692C54.0613 133.412 53.7206 133.272 53.31 133.272H51.588V136.24H53.31ZM61.7218 134.07C62.4871 134.07 63.1171 134.326 63.6118 134.84C64.1158 135.353 64.3678 136.062 64.3678 136.968V141.266H62.5618V137.192C62.5618 136.725 62.4358 136.37 62.1838 136.128C61.9318 135.876 61.5958 135.75 61.1758 135.75C60.7091 135.75 60.3358 135.894 60.0558 136.184C59.7758 136.473 59.6358 136.907 59.6358 137.486V141.266H57.8298V131.466H59.6358V135.05C60.0745 134.396 60.7698 134.07 61.7218 134.07ZM71.8739 140.398C71.1552 141.107 70.2779 141.462 69.2419 141.462C68.2059 141.462 67.3285 141.107 66.6099 140.398C65.9005 139.679 65.5459 138.802 65.5459 137.766C65.5459 136.73 65.9005 135.857 66.6099 135.148C67.3285 134.429 68.2059 134.07 69.2419 134.07C70.2779 134.07 71.1552 134.429 71.8739 135.148C72.5925 135.857 72.9519 136.73 72.9519 137.766C72.9519 138.802 72.5925 139.679 71.8739 140.398ZM67.8839 139.152C68.2479 139.516 68.7005 139.698 69.2419 139.698C69.7832 139.698 70.2359 139.516 70.5999 139.152C70.9639 138.788 71.1459 138.326 71.1459 137.766C71.1459 137.206 70.9639 136.744 70.5999 136.38C70.2359 136.016 69.7832 135.834 69.2419 135.834C68.7005 135.834 68.2479 136.016 67.8839 136.38C67.5292 136.744 67.3519 137.206 67.3519 137.766C67.3519 138.326 67.5292 138.788 67.8839 139.152ZM78.076 136.002H76.494V138.914C76.494 139.156 76.5546 139.334 76.676 139.446C76.7973 139.558 76.9746 139.623 77.208 139.642C77.4413 139.651 77.7306 139.646 78.076 139.628V141.266C76.8346 141.406 75.9573 141.289 75.444 140.916C74.94 140.542 74.688 139.875 74.688 138.914V136.002H73.47V134.266H74.688V132.852L76.494 132.306V134.266H78.076V136.002ZM85.0946 140.398C84.3759 141.107 83.4986 141.462 82.4626 141.462C81.4266 141.462 80.5492 141.107 79.8306 140.398C79.1212 139.679 78.7666 138.802 78.7666 137.766C78.7666 136.73 79.1212 135.857 79.8306 135.148C80.5492 134.429 81.4266 134.07 82.4626 134.07C83.4986 134.07 84.3759 134.429 85.0946 135.148C85.8132 135.857 86.1726 136.73 86.1726 137.766C86.1726 138.802 85.8132 139.679 85.0946 140.398ZM81.1046 139.152C81.4686 139.516 81.9212 139.698 82.4626 139.698C83.0039 139.698 83.4566 139.516 83.8206 139.152C84.1846 138.788 84.3666 138.326 84.3666 137.766C84.3666 137.206 84.1846 136.744 83.8206 136.38C83.4566 136.016 83.0039 135.834 82.4626 135.834C81.9212 135.834 81.4686 136.016 81.1046 136.38C80.7499 136.744 80.5726 137.206 80.5726 137.766C80.5726 138.326 80.7499 138.788 81.1046 139.152ZM88.9587 136.254C88.9587 136.44 89.08 136.594 89.3227 136.716C89.5747 136.828 89.878 136.93 90.2327 137.024C90.5873 137.108 90.942 137.22 91.2967 137.36C91.6513 137.49 91.95 137.714 92.1927 138.032C92.4447 138.349 92.5707 138.746 92.5707 139.222C92.5707 139.94 92.3 140.496 91.7587 140.888C91.2267 141.27 90.5593 141.462 89.7567 141.462C88.3193 141.462 87.3393 140.906 86.8167 139.796L88.3847 138.914C88.59 139.52 89.0473 139.824 89.7567 139.824C90.4007 139.824 90.7227 139.623 90.7227 139.222C90.7227 139.035 90.5967 138.886 90.3447 138.774C90.102 138.652 89.8033 138.545 89.4487 138.452C89.094 138.358 88.7393 138.242 88.3847 138.102C88.03 137.962 87.7267 137.742 87.4747 137.444C87.232 137.136 87.1107 136.753 87.1107 136.296C87.1107 135.605 87.3627 135.064 87.8667 134.672C88.38 134.27 89.0147 134.07 89.7707 134.07C90.34 134.07 90.858 134.2 91.3247 134.462C91.7913 134.714 92.16 135.078 92.4307 135.554L90.8907 136.394C90.6667 135.918 90.2933 135.68 89.7707 135.68C89.5373 135.68 89.3413 135.731 89.1827 135.834C89.0333 135.936 88.9587 136.076 88.9587 136.254ZM97.6241 134.07C98.3895 134.07 99.0195 134.326 99.5141 134.84C100.018 135.353 100.27 136.062 100.27 136.968V141.266H98.4641V137.192C98.4641 136.725 98.3381 136.37 98.0861 136.128C97.8341 135.876 97.4981 135.75 97.0781 135.75C96.6115 135.75 96.2381 135.894 95.9581 136.184C95.6781 136.473 95.5381 136.907 95.5381 137.486V141.266H93.7321V131.466H95.5381V135.05C95.9768 134.396 96.6721 134.07 97.6241 134.07ZM107.776 140.398C107.058 141.107 106.18 141.462 105.144 141.462C104.108 141.462 103.231 141.107 102.512 140.398C101.803 139.679 101.448 138.802 101.448 137.766C101.448 136.73 101.803 135.857 102.512 135.148C103.231 134.429 104.108 134.07 105.144 134.07C106.18 134.07 107.058 134.429 107.776 135.148C108.495 135.857 108.854 136.73 108.854 137.766C108.854 138.802 108.495 139.679 107.776 140.398ZM103.786 139.152C104.15 139.516 104.603 139.698 105.144 139.698C105.686 139.698 106.138 139.516 106.502 139.152C106.866 138.788 107.048 138.326 107.048 137.766C107.048 137.206 106.866 136.744 106.502 136.38C106.138 136.016 105.686 135.834 105.144 135.834C104.603 135.834 104.15 136.016 103.786 136.38C103.432 136.744 103.254 137.206 103.254 137.766C103.254 138.326 103.432 138.788 103.786 139.152ZM114.199 134.07C115.141 134.07 115.944 134.429 116.607 135.148C117.279 135.857 117.615 136.73 117.615 137.766C117.615 138.802 117.279 139.679 116.607 140.398C115.944 141.107 115.141 141.462 114.199 141.462C113.219 141.462 112.463 141.121 111.931 140.44V144.066H110.125V134.266H111.931V135.092C112.463 134.41 113.219 134.07 114.199 134.07ZM112.477 139.194C112.841 139.558 113.303 139.74 113.863 139.74C114.423 139.74 114.885 139.558 115.249 139.194C115.622 138.82 115.809 138.344 115.809 137.766C115.809 137.187 115.622 136.716 115.249 136.352C114.885 135.978 114.423 135.792 113.863 135.792C113.303 135.792 112.841 135.978 112.477 136.352C112.113 136.716 111.931 137.187 111.931 137.766C111.931 138.344 112.113 138.82 112.477 139.194Z" fill="#828282"/>
<path d="M12.7933 183.86C13.0931 182.939 14.3951 182.939 14.6949 183.86L16.446 189.234C16.5801 189.646 16.9639 189.924 17.3968 189.924H23.0576C24.0269 189.924 24.4293 191.165 23.6443 191.734L19.0694 195.049C18.7179 195.303 18.5709 195.756 18.7053 196.168L20.4539 201.535C20.7539 202.456 19.7006 203.223 18.9164 202.654L14.3308 199.332C13.9808 199.078 13.5074 199.078 13.1574 199.332L8.57183 202.654C7.78757 203.223 6.73428 202.456 7.0343 201.535L8.78288 196.168C8.91733 195.756 8.77025 195.303 8.41879 195.049L3.84392 191.734C3.05891 191.165 3.46124 189.924 4.43064 189.924H10.0914C10.5243 189.924 10.9081 189.646 11.0422 189.234L12.7933 183.86Z" fill="#070707"/>
<path d="M47.8902 183.86C48.1901 182.939 49.492 182.939 49.7918 183.86L51.5429 189.234C51.677 189.646 52.0608 189.924 52.4937 189.924H58.1545C59.1239 189.924 59.5262 191.165 58.7412 191.734L54.1663 195.049C53.8149 195.303 53.6678 195.756 53.8022 196.168L55.5508 201.535C55.8508 202.456 54.7975 203.223 54.0133 202.654L49.4277 199.332C49.0777 199.078 48.6043 199.078 48.2543 199.332L43.6688 202.654C42.8845 203.223 41.8312 202.456 42.1312 201.535L43.8798 196.168C44.0143 195.756 43.8672 195.303 43.5157 195.049L38.9408 191.734C38.1558 191.165 38.5582 189.924 39.5276 189.924H45.1883C45.6212 189.924 46.005 189.646 46.1391 189.234L47.8902 183.86Z" fill="#070707"/>
<path d="M82.9874 183.86C83.2872 182.939 84.5891 182.939 84.889 183.86L86.6401 189.234C86.7742 189.646 87.158 189.924 87.5909 189.924H93.2516C94.221 189.924 94.6234 191.165 93.8384 191.734L89.2635 195.049C88.912 195.303 88.7649 195.756 88.8994 196.168L90.648 201.535C90.948 202.456 89.8947 203.223 89.1105 202.654L84.5249 199.332C84.1749 199.078 83.7015 199.078 83.3515 199.332L78.7659 202.654C77.9817 203.223 76.9284 202.456 77.2284 201.535L78.977 196.168C79.1114 195.756 78.9643 195.303 78.6129 195.049L74.038 191.734C73.253 191.165 73.6553 189.924 74.6247 189.924H80.2855C80.7184 189.924 81.1022 189.646 81.2363 189.234L82.9874 183.86Z" fill="#070707"/>
<path d="M118.085 183.86C118.384 182.939 119.686 182.939 119.986 183.86L121.737 189.234C121.871 189.646 122.255 189.924 122.688 189.924H128.349C129.318 189.924 129.721 191.165 128.936 191.734L124.361 195.049C124.009 195.303 123.862 195.756 123.997 196.168L125.745 201.535C126.045 202.456 124.992 203.223 124.208 202.654L119.622 199.332C119.272 199.078 118.799 199.078 118.449 199.332L113.863 202.654C113.079 203.223 112.026 202.456 112.326 201.535L114.074 196.168C114.209 195.756 114.062 195.303 113.71 195.049L109.135 191.734C108.35 191.165 108.753 189.924 109.722 189.924H115.383C115.816 189.924 116.199 189.646 116.333 189.234L118.085 183.86Z" fill="#070707"/>
<path d="M153.182 183.86C153.482 182.939 154.783 182.939 155.083 183.86L156.834 189.234C156.969 189.646 157.352 189.924 157.785 189.924H163.446C164.415 189.924 164.818 191.165 164.033 191.734L159.458 195.049C159.106 195.303 158.959 195.756 159.094 196.168L160.842 201.535C161.142 202.456 160.089 203.223 159.305 202.654L154.719 199.332C154.369 199.078 153.896 199.078 153.546 199.332L148.96 202.654C148.176 203.223 147.123 202.456 147.423 201.535L149.171 196.168C149.306 195.756 149.159 195.303 148.807 195.049L144.232 191.734C143.447 191.165 143.85 189.924 144.819 189.924H150.48C150.913 189.924 151.297 189.646 151.431 189.234L153.182 183.86Z" fill="#E5E5E5"/>
<defs>
<radialGradient id="paint0_radial_167_556" cx="0" cy="0" r="1" gradientUnits="userSpaceOnUse" gradientTransform="translate(69.8385 22.5656) scale(62.0565 61.1565)">
<stop stop-color="#34364E" stop-opacity="0.98"/>
<stop offset="1" stop-color="#0C0824"/>
</radialGradient>
</defs>
</svg>
