<svg width="40" height="40" viewBox="0 0 40 40" fill="none" xmlns="http://www.w3.org/2000/svg">
<path d="M19.5541 0C8.78056 0 0 8.98033 0 19.999C0 31.0177 8.78056 39.998 19.5541 39.998C30.3277 39.998 39.1083 31.0177 39.1083 19.999C39.1083 8.98033 30.3277 0 19.5541 0ZM19.5541 3.07677C23.4838 3.07677 27.0749 4.47094 29.9047 6.80736C28.4663 8.61497 25.8246 11.1245 21.3967 12.7686C18.9901 8.31691 16.9782 5.47089 15.5775 3.58637C16.8466 3.26908 18.1816 3.07677 19.5541 3.07677ZM12.5974 4.66323C13.7725 6.21124 15.8971 9.12456 18.426 13.682C11.9299 15.4223 6.06366 15.5377 3.61939 15.4608C4.92614 10.6533 8.2353 6.72083 12.5974 4.66323ZM32.0669 8.94187C34.5676 11.9129 36.0999 15.7685 36.0999 19.999C36.0999 20.6336 36.0623 21.249 35.9965 21.8643C35.4513 21.7874 35.047 21.7201 34.3513 21.6624C32.0199 21.4797 28.9364 21.4797 25.599 21.9893C24.7247 19.6721 23.7658 17.528 22.7787 15.5185C27.4228 13.7013 30.3653 11.0187 32.0669 8.94187ZM19.855 16.4704C20.8045 18.3741 21.7258 20.4125 22.5813 22.6047C18.6234 23.8065 15.0228 26.5468 12.2589 29.0947C10.783 30.4408 9.57024 31.7292 8.66774 32.7388C5.19877 29.6332 2.99893 25.0949 2.99893 20.0086C2.99893 19.499 3.03653 19.0183 3.07413 18.5279C5.21757 18.6145 12.0709 18.6818 19.855 16.4704ZM29.8106 24.643C32.1233 24.5565 33.9471 24.72 35.3949 24.8834C34.3043 28.6428 31.9635 31.8446 28.8705 33.9983C28.3723 30.835 27.6014 27.7967 26.6707 24.9315C27.7518 24.7873 28.8141 24.6911 29.8106 24.643ZM23.6624 25.4891C24.7341 28.6524 25.5802 32.0273 26.0596 35.5656C24.0572 36.4309 21.8668 36.9213 19.5447 36.9213C16.4518 36.9213 13.5845 36.0463 11.112 34.556C11.9487 33.6426 12.9828 32.5369 14.2614 31.3735C16.9218 28.9313 20.3908 26.441 23.6624 25.4891Z" fill="#090909"/>
</svg>
