<svg width="21" height="20" viewBox="0 0 21 20" fill="none" xmlns="http://www.w3.org/2000/svg">
<path d="M9.69808 0.85958C9.99792 -0.0606967 11.2998 -0.0606959 11.5997 0.859581L13.3508 6.23398C13.4849 6.64561 13.8687 6.92418 14.3016 6.92418H19.9623C20.9317 6.92418 21.3341 8.16521 20.5491 8.73398L15.9742 12.0486C15.6227 12.3033 15.4756 12.7555 15.6101 13.1682L17.3587 18.5349C17.6587 19.4557 16.6054 20.2227 15.8211 19.6544L11.2356 16.3321C10.8856 16.0784 10.4122 16.0784 10.0622 16.3321L5.47661 19.6544C4.69236 20.2227 3.63907 19.4557 3.93909 18.5348L5.68766 13.1682C5.82211 12.7555 5.67503 12.3033 5.32358 12.0486L0.748702 8.73398C-0.0363045 8.16521 0.366026 6.92418 1.33542 6.92418H6.99618C7.4291 6.92418 7.81286 6.64561 7.94698 6.23398L9.69808 0.85958Z" fill="#070707"/>
</svg>
